<svg class="lds-spinner" width="100%"  height="100%"  
  xmlns="http://www.w3.org/2000/svg" 
  xmlns:xlink="http://www.w3.org/1999/xlink" viewBox="0 0 100 100" preserveAspectRatio="xMidYMid" style="background: none;">
<g transform="rotate(0 50 50)">
  <rect x="47" y="24" rx="9.4" ry="4.8" width="6" height="12" fill="#ff727d">
    <animate attributeName="opacity" values="1;0"  dur="10s" begin="-9.166666666666666s" repeatCount="indefinite"></animate>
  </rect>
</g><g transform="rotate(30 50 50)">
  <rect x="47" y="24" rx="9.4" ry="4.8" width="6" height="12" fill="#ff727d">
    <animate attributeName="opacity" values="1;0"  dur="10s" begin="-8.333333333333334s" repeatCount="indefinite"></animate>
  </rect>
</g><g transform="rotate(60 50 50)">
  <rect x="47" y="24" rx="9.4" ry="4.8" width="6" height="12" fill="#ff727d">
    <animate attributeName="opacity" values="1;0"  dur="10s" begin="-7.5s" repeatCount="indefinite"></animate>
  </rect>
</g><g transform="rotate(90 50 50)">
  <rect x="47" y="24" rx="9.4" ry="4.8" width="6" height="12" fill="#ff727d">
    <animate attributeName="opacity" values="1;0"  dur="10s" begin="-6.666666666666666s" repeatCount="indefinite"></animate>
  </rect>
</g><g transform="rotate(120 50 50)">
  <rect x="47" y="24" rx="9.4" ry="4.8" width="6" height="12" fill="#ff727d">
    <animate attributeName="opacity" values="1;0"  dur="10s" begin="-5.833333333333334s" repeatCount="indefinite"></animate>
  </rect>
</g><g transform="rotate(150 50 50)">
  <rect x="47" y="24" rx="9.4" ry="4.8" width="6" height="12" fill="#ff727d">
    <animate attributeName="opacity" values="1;0"  dur="10s" begin="-5s" repeatCount="indefinite"></animate>
  </rect>
</g><g transform="rotate(180 50 50)">
  <rect x="47" y="24" rx="9.4" ry="4.8" width="6" height="12" fill="#ff727d">
    <animate attributeName="opacity" values="1;0"  dur="10s" begin="-4.166666666666667s" repeatCount="indefinite"></animate>
  </rect>
</g><g transform="rotate(210 50 50)">
  <rect x="47" y="24" rx="9.4" ry="4.8" width="6" height="12" fill="#ff727d">
    <animate attributeName="opacity" values="1;0"  dur="10s" begin="-3.333333333333333s" repeatCount="indefinite"></animate>
  </rect>
</g><g transform="rotate(240 50 50)">
  <rect x="47" y="24" rx="9.4" ry="4.8" width="6" height="12" fill="#ff727d">
    <animate attributeName="opacity" values="1;0"  dur="10s" begin="-2.5s" repeatCount="indefinite"></animate>
  </rect>
</g><g transform="rotate(270 50 50)">
  <rect x="47" y="24" rx="9.4" ry="4.8" width="6" height="12" fill="#ff727d">
    <animate attributeName="opacity" values="1;0"  dur="10s" begin="-1.6666666666666666s" repeatCount="indefinite"></animate>
  </rect>
</g><g transform="rotate(300 50 50)">
  <rect x="47" y="24" rx="9.4" ry="4.8" width="6" height="12" fill="#ff727d">
    <animate attributeName="opacity" values="1;0"  dur="10s" begin="-0.8333333333333333s" repeatCount="indefinite"></animate>
  </rect>
</g><g transform="rotate(330 50 50)">
  <rect x="47" y="24" rx="9.4" ry="4.8" width="6" height="12" fill="#ff727d">
    <animate attributeName="opacity" values="1;0"  dur="10s" begin="0s" repeatCount="indefinite"></animate>
  </rect>
</g></svg>